TITLE ""
FILE "DISC1Track27.mp3" MP3
  TRACK 01 AUDIO
    TITLE "DISC1Track27_01"
    INDEX 01 00:00:00
  TRACK 02 AUDIO
    TITLE "DISC1Track27_02"
    INDEX 01 00:01:49
  TRACK 03 AUDIO
    TITLE "DISC1Track27_03"
    INDEX 01 00:01:57
  TRACK 04 AUDIO
    TITLE "DISC1Track27_04"
    INDEX 01 00:05:31
  TRACK 05 AUDIO
    TITLE "DISC1Track27_05"
    INDEX 01 00:09:11
  TRACK 06 AUDIO
    TITLE "DISC1Track27_06"
    INDEX 01 00:12:47
  TRACK 07 AUDIO
    TITLE "DISC1Track27_07"
    INDEX 01 00:12:61
  TRACK 08 AUDIO
    TITLE "DISC1Track27_08"
    INDEX 01 00:16:15
  TRACK 09 AUDIO
    TITLE "DISC1Track27_09"
    INDEX 01 00:20:13
  TRACK 10 AUDIO
    TITLE "DISC1Track27_10"
    INDEX 01 00:23:68
  TRACK 11 AUDIO
    TITLE "DISC1Track27_11"
    INDEX 01 00:24:09
  TRACK 12 AUDIO
    TITLE "DISC1Track27_12"
    INDEX 01 00:28:09
  TRACK 13 AUDIO
    TITLE "DISC1Track27_13"
    INDEX 01 00:31:40
  TRACK 14 AUDIO
    TITLE "DISC1Track27_14"
    INDEX 01 00:34:46
  TRACK 15 AUDIO
    TITLE "DISC1Track27_15"
    INDEX 01 00:34:56
  TRACK 16 AUDIO
    TITLE "DISC1Track27_16"
    INDEX 01 00:38:30
  TRACK 17 AUDIO
    TITLE "DISC1Track27_17"
    INDEX 01 00:42:05
  TRACK 18 AUDIO
    TITLE "DISC1Track27_18"
    INDEX 01 00:45:25
  TRACK 19 AUDIO
    TITLE "DISC1Track27_19"
    INDEX 01 00:45:38
  TRACK 20 AUDIO
    TITLE "DISC1Track27_20"
    INDEX 01 00:48:72
  TRACK 21 AUDIO
    TITLE "DISC1Track27_21"
    INDEX 01 00:52:31
  TRACK 22 AUDIO
    TITLE "DISC1Track27_22"
    INDEX 01 00:55:35
  TRACK 23 AUDIO
    TITLE "DISC1Track27_23"
    INDEX 01 00:55:51
  TRACK 24 AUDIO
    TITLE "DISC1Track27_24"
    INDEX 01 00:59:54
  TRACK 25 AUDIO
    TITLE "DISC1Track27_25"
    INDEX 01 01:03:68
  TRACK 26 AUDIO
    TITLE "DISC1Track27_26"
    INDEX 01 01:07:52
  TRACK 27 AUDIO
    TITLE "DISC1Track27_27"
    INDEX 01 01:07:67
  TRACK 28 AUDIO
    TITLE "DISC1Track27_28"
    INDEX 01 01:11:22
  TRACK 29 AUDIO
    TITLE "DISC1Track27_29"
    INDEX 01 01:14:11
  TRACK 30 AUDIO
    TITLE "DISC1Track27_30"
    INDEX 01 01:16:39
  TRACK 31 AUDIO
    TITLE "DISC1Track27_31"
    INDEX 01 01:16:53
  TRACK 32 AUDIO
    TITLE "DISC1Track27_32"
    INDEX 01 01:19:10
  TRACK 33 AUDIO
    TITLE "DISC1Track27_33"
    INDEX 01 01:22:22
  TRACK 34 AUDIO
    TITLE "DISC1Track27_34"
    INDEX 01 01:25:07
  TRACK 35 AUDIO
    TITLE "DISC1Track27_35"
    INDEX 01 01:25:22
  TRACK 36 AUDIO
    TITLE "DISC1Track27_36"
    INDEX 01 01:28:40
  TRACK 37 AUDIO
    TITLE "DISC1Track27_37"
    INDEX 01 01:32:44
  TRACK 38 AUDIO
    TITLE "DISC1Track27_38"
    INDEX 01 01:36:04
  TRACK 39 AUDIO
    TITLE "DISC1Track27_39"
    INDEX 01 01:36:26
  TRACK 40 AUDIO
    TITLE "DISC1Track27_40"
    INDEX 01 01:39:05
  TRACK 41 AUDIO
    TITLE "DISC1Track27_41"
    INDEX 01 01:42:23
  TRACK 42 AUDIO
    TITLE "DISC1Track27_42"
    INDEX 01 01:45:17
